<mxfile host="app.diagrams.net" agent="Mozilla/5.0 (Windows NT 10.0; Win64; x64) AppleWebKit/537.36 (KHTML, like Gecko) Chrome/131.0.0.0 Safari/537.36" version="26.2.12">
  <diagram name="Page-1" id="e7e014a7-5840-1c2e-5031-d8a46d1fe8dd">
    <mxGraphModel dx="875" dy="865" grid="1" gridSize="10" guides="1" tooltips="1" connect="1" arrows="1" fold="1" page="1" pageScale="1" pageWidth="1169" pageHeight="826" background="none" math="0" shadow="0">
      <root>
        <mxCell id="0" />
        <mxCell id="1" parent="0" />
        <mxCell id="OmQkojMJBYcdFpXbdISO-95" value="" style="edgeStyle=orthogonalEdgeStyle;rounded=0;orthogonalLoop=1;jettySize=auto;html=1;" edge="1" parent="1" source="OmQkojMJBYcdFpXbdISO-41" target="OmQkojMJBYcdFpXbdISO-94">
          <mxGeometry relative="1" as="geometry" />
        </mxCell>
        <mxCell id="OmQkojMJBYcdFpXbdISO-41" value="&quot;Delivery Done&quot; Button" style="shape=umlBoundary;whiteSpace=wrap;html=1;" vertex="1" parent="1">
          <mxGeometry x="1060" y="860" width="100" height="80" as="geometry" />
        </mxCell>
        <mxCell id="OmQkojMJBYcdFpXbdISO-42" value="Control Object" style="ellipse;shape=umlControl;whiteSpace=wrap;html=1;" vertex="1" parent="1">
          <mxGeometry x="1315" y="110" width="70" height="80" as="geometry" />
        </mxCell>
        <mxCell id="OmQkojMJBYcdFpXbdISO-43" value="Entity Object" style="ellipse;shape=umlEntity;whiteSpace=wrap;html=1;" vertex="1" parent="1">
          <mxGeometry x="1340" y="480" width="80" height="80" as="geometry" />
        </mxCell>
        <mxCell id="OmQkojMJBYcdFpXbdISO-62" style="edgeStyle=orthogonalEdgeStyle;rounded=0;orthogonalLoop=1;jettySize=auto;html=1;exitX=1;exitY=1;exitDx=0;exitDy=0;exitPerimeter=0;entryX=0.206;entryY=0.325;entryDx=0;entryDy=0;entryPerimeter=0;" edge="1" parent="1" source="OmQkojMJBYcdFpXbdISO-44" target="OmQkojMJBYcdFpXbdISO-56">
          <mxGeometry relative="1" as="geometry">
            <mxPoint x="180" y="580" as="targetPoint" />
            <Array as="points">
              <mxPoint x="110" y="600" />
              <mxPoint x="546" y="600" />
            </Array>
          </mxGeometry>
        </mxCell>
        <mxCell id="OmQkojMJBYcdFpXbdISO-63" value="Select Post" style="edgeLabel;html=1;align=center;verticalAlign=middle;resizable=0;points=[];" vertex="1" connectable="0" parent="OmQkojMJBYcdFpXbdISO-62">
          <mxGeometry x="0.0671" y="2" relative="1" as="geometry">
            <mxPoint as="offset" />
          </mxGeometry>
        </mxCell>
        <mxCell id="OmQkojMJBYcdFpXbdISO-70" style="edgeStyle=orthogonalEdgeStyle;rounded=0;orthogonalLoop=1;jettySize=auto;html=1;exitX=0.75;exitY=0.1;exitDx=0;exitDy=0;exitPerimeter=0;entryX=0.265;entryY=0.784;entryDx=0;entryDy=0;entryPerimeter=0;" edge="1" parent="1" source="OmQkojMJBYcdFpXbdISO-44" target="OmQkojMJBYcdFpXbdISO-46">
          <mxGeometry relative="1" as="geometry">
            <mxPoint x="240.0000000000001" y="210.0000000000001" as="targetPoint" />
            <Array as="points">
              <mxPoint x="240" y="359" />
              <mxPoint x="240" y="183" />
            </Array>
          </mxGeometry>
        </mxCell>
        <mxCell id="OmQkojMJBYcdFpXbdISO-74" value="Accept" style="edgeLabel;html=1;align=center;verticalAlign=middle;resizable=0;points=[];" vertex="1" connectable="0" parent="OmQkojMJBYcdFpXbdISO-70">
          <mxGeometry x="0.2666" relative="1" as="geometry">
            <mxPoint as="offset" />
          </mxGeometry>
        </mxCell>
        <mxCell id="OmQkojMJBYcdFpXbdISO-82" style="edgeStyle=orthogonalEdgeStyle;rounded=0;orthogonalLoop=1;jettySize=auto;html=1;exitX=0.25;exitY=0.1;exitDx=0;exitDy=0;exitPerimeter=0;entryX=-0.023;entryY=0.75;entryDx=0;entryDy=0;entryPerimeter=0;" edge="1" parent="1" source="OmQkojMJBYcdFpXbdISO-44" target="OmQkojMJBYcdFpXbdISO-80">
          <mxGeometry relative="1" as="geometry">
            <mxPoint x="100" y="80" as="targetPoint" />
            <Array as="points">
              <mxPoint x="88" y="920" />
            </Array>
          </mxGeometry>
        </mxCell>
        <mxCell id="OmQkojMJBYcdFpXbdISO-44" value="Actor" style="shape=umlActor;verticalLabelPosition=bottom;verticalAlign=top;html=1;" vertex="1" parent="1">
          <mxGeometry x="80" y="353" width="30" height="60" as="geometry" />
        </mxCell>
        <mxCell id="OmQkojMJBYcdFpXbdISO-46" value="Meeting Form" style="shape=umlBoundary;whiteSpace=wrap;html=1;" vertex="1" parent="1">
          <mxGeometry x="650" y="110" width="100" height="80" as="geometry" />
        </mxCell>
        <mxCell id="OmQkojMJBYcdFpXbdISO-59" value="" style="edgeStyle=orthogonalEdgeStyle;rounded=0;orthogonalLoop=1;jettySize=auto;html=1;" edge="1" parent="1" source="OmQkojMJBYcdFpXbdISO-47" target="OmQkojMJBYcdFpXbdISO-50">
          <mxGeometry relative="1" as="geometry" />
        </mxCell>
        <mxCell id="OmQkojMJBYcdFpXbdISO-47" value="login screen" style="shape=umlBoundary;whiteSpace=wrap;html=1;" vertex="1" parent="1">
          <mxGeometry x="250" y="350" width="100" height="80" as="geometry" />
        </mxCell>
        <mxCell id="OmQkojMJBYcdFpXbdISO-73" value="" style="edgeStyle=orthogonalEdgeStyle;rounded=0;orthogonalLoop=1;jettySize=auto;html=1;entryX=0.573;entryY=0.975;entryDx=0;entryDy=0;entryPerimeter=0;" edge="1" parent="1" source="OmQkojMJBYcdFpXbdISO-49" target="OmQkojMJBYcdFpXbdISO-71">
          <mxGeometry relative="1" as="geometry">
            <mxPoint x="860" y="360" as="targetPoint" />
          </mxGeometry>
        </mxCell>
        <mxCell id="OmQkojMJBYcdFpXbdISO-49" value="Show" style="ellipse;shape=umlControl;whiteSpace=wrap;html=1;" vertex="1" parent="1">
          <mxGeometry x="845" y="380" width="70" height="80" as="geometry" />
        </mxCell>
        <mxCell id="OmQkojMJBYcdFpXbdISO-76" value="" style="edgeStyle=orthogonalEdgeStyle;rounded=0;orthogonalLoop=1;jettySize=auto;html=1;" edge="1" parent="1" source="OmQkojMJBYcdFpXbdISO-50" target="OmQkojMJBYcdFpXbdISO-51">
          <mxGeometry relative="1" as="geometry" />
        </mxCell>
        <mxCell id="OmQkojMJBYcdFpXbdISO-50" value="credentials check" style="ellipse;shape=umlControl;whiteSpace=wrap;html=1;" vertex="1" parent="1">
          <mxGeometry x="410" y="350" width="70" height="80" as="geometry" />
        </mxCell>
        <mxCell id="OmQkojMJBYcdFpXbdISO-53" value="" style="edgeStyle=orthogonalEdgeStyle;rounded=0;orthogonalLoop=1;jettySize=auto;html=1;" edge="1" parent="1" source="OmQkojMJBYcdFpXbdISO-51" target="OmQkojMJBYcdFpXbdISO-52">
          <mxGeometry relative="1" as="geometry">
            <Array as="points">
              <mxPoint x="570" y="470" />
              <mxPoint x="575" y="470" />
            </Array>
          </mxGeometry>
        </mxCell>
        <mxCell id="OmQkojMJBYcdFpXbdISO-54" value="Filter Lost Items" style="edgeLabel;html=1;align=center;verticalAlign=middle;resizable=0;points=[];" vertex="1" connectable="0" parent="OmQkojMJBYcdFpXbdISO-53">
          <mxGeometry x="-0.3452" relative="1" as="geometry">
            <mxPoint as="offset" />
          </mxGeometry>
        </mxCell>
        <mxCell id="OmQkojMJBYcdFpXbdISO-85" value="" style="edgeStyle=orthogonalEdgeStyle;rounded=0;orthogonalLoop=1;jettySize=auto;html=1;" edge="1" parent="1" source="OmQkojMJBYcdFpXbdISO-51" target="OmQkojMJBYcdFpXbdISO-84">
          <mxGeometry relative="1" as="geometry" />
        </mxCell>
        <mxCell id="OmQkojMJBYcdFpXbdISO-51" value="main screen" style="shape=umlBoundary;whiteSpace=wrap;html=1;" vertex="1" parent="1">
          <mxGeometry x="520" y="350" width="100" height="90" as="geometry" />
        </mxCell>
        <mxCell id="OmQkojMJBYcdFpXbdISO-57" value="" style="edgeStyle=orthogonalEdgeStyle;rounded=0;orthogonalLoop=1;jettySize=auto;html=1;" edge="1" parent="1" source="OmQkojMJBYcdFpXbdISO-52" target="OmQkojMJBYcdFpXbdISO-56">
          <mxGeometry relative="1" as="geometry" />
        </mxCell>
        <mxCell id="OmQkojMJBYcdFpXbdISO-52" value="show" style="ellipse;shape=umlControl;whiteSpace=wrap;html=1;" vertex="1" parent="1">
          <mxGeometry x="540" y="500" width="70" height="70" as="geometry" />
        </mxCell>
        <mxCell id="OmQkojMJBYcdFpXbdISO-64" value="" style="edgeStyle=orthogonalEdgeStyle;rounded=0;orthogonalLoop=1;jettySize=auto;html=1;" edge="1" parent="1" source="OmQkojMJBYcdFpXbdISO-56" target="OmQkojMJBYcdFpXbdISO-60">
          <mxGeometry relative="1" as="geometry" />
        </mxCell>
        <mxCell id="OmQkojMJBYcdFpXbdISO-56" value="Lost Items Posts" style="shape=umlBoundary;whiteSpace=wrap;html=1;" vertex="1" parent="1">
          <mxGeometry x="525" y="630" width="100" height="90" as="geometry" />
        </mxCell>
        <mxCell id="OmQkojMJBYcdFpXbdISO-67" value="" style="edgeStyle=orthogonalEdgeStyle;rounded=0;orthogonalLoop=1;jettySize=auto;html=1;" edge="1" parent="1" source="OmQkojMJBYcdFpXbdISO-60" target="OmQkojMJBYcdFpXbdISO-66">
          <mxGeometry relative="1" as="geometry" />
        </mxCell>
        <mxCell id="OmQkojMJBYcdFpXbdISO-77" value="&quot;Found&quot; button pressed" style="edgeLabel;html=1;align=center;verticalAlign=middle;resizable=0;points=[];" vertex="1" connectable="0" parent="OmQkojMJBYcdFpXbdISO-67">
          <mxGeometry x="0.2485" y="6" relative="1" as="geometry">
            <mxPoint y="1" as="offset" />
          </mxGeometry>
        </mxCell>
        <mxCell id="OmQkojMJBYcdFpXbdISO-60" value="Show found Button" style="ellipse;shape=umlControl;whiteSpace=wrap;html=1;" vertex="1" parent="1">
          <mxGeometry x="690" y="635" width="70" height="80" as="geometry" />
        </mxCell>
        <mxCell id="OmQkojMJBYcdFpXbdISO-61" style="edgeStyle=orthogonalEdgeStyle;rounded=0;orthogonalLoop=1;jettySize=auto;html=1;exitX=1;exitY=0.3333333333333333;exitDx=0;exitDy=0;exitPerimeter=0;entryX=-0.015;entryY=0.57;entryDx=0;entryDy=0;entryPerimeter=0;" edge="1" parent="1" source="OmQkojMJBYcdFpXbdISO-44" target="OmQkojMJBYcdFpXbdISO-47">
          <mxGeometry relative="1" as="geometry" />
        </mxCell>
        <mxCell id="OmQkojMJBYcdFpXbdISO-65" value="**7 case 3" style="html=1;whiteSpace=wrap;" vertex="1" parent="1">
          <mxGeometry x="670" y="740" width="110" height="50" as="geometry" />
        </mxCell>
        <mxCell id="OmQkojMJBYcdFpXbdISO-69" value="" style="edgeStyle=orthogonalEdgeStyle;rounded=0;orthogonalLoop=1;jettySize=auto;html=1;" edge="1" parent="1" source="OmQkojMJBYcdFpXbdISO-66" target="OmQkojMJBYcdFpXbdISO-68">
          <mxGeometry relative="1" as="geometry" />
        </mxCell>
        <mxCell id="OmQkojMJBYcdFpXbdISO-66" value="Show" style="ellipse;shape=umlControl;whiteSpace=wrap;html=1;" vertex="1" parent="1">
          <mxGeometry x="690" y="500" width="70" height="80" as="geometry" />
        </mxCell>
        <mxCell id="OmQkojMJBYcdFpXbdISO-72" value="" style="edgeStyle=orthogonalEdgeStyle;rounded=0;orthogonalLoop=1;jettySize=auto;html=1;" edge="1" parent="1" source="OmQkojMJBYcdFpXbdISO-68" target="OmQkojMJBYcdFpXbdISO-49">
          <mxGeometry relative="1" as="geometry" />
        </mxCell>
        <mxCell id="OmQkojMJBYcdFpXbdISO-68" value="&quot;Wait for Reply&quot; message" style="shape=umlBoundary;whiteSpace=wrap;html=1;" vertex="1" parent="1">
          <mxGeometry x="830" y="500" width="100" height="80" as="geometry" />
        </mxCell>
        <mxCell id="OmQkojMJBYcdFpXbdISO-79" value="" style="edgeStyle=orthogonalEdgeStyle;rounded=0;orthogonalLoop=1;jettySize=auto;html=1;" edge="1" parent="1" source="OmQkojMJBYcdFpXbdISO-71" target="OmQkojMJBYcdFpXbdISO-78">
          <mxGeometry relative="1" as="geometry" />
        </mxCell>
        <mxCell id="OmQkojMJBYcdFpXbdISO-71" value="Chat with owner" style="shape=umlBoundary;whiteSpace=wrap;html=1;" vertex="1" parent="1">
          <mxGeometry x="830" y="210" width="100" height="80" as="geometry" />
        </mxCell>
        <mxCell id="OmQkojMJBYcdFpXbdISO-81" value="" style="edgeStyle=orthogonalEdgeStyle;rounded=0;orthogonalLoop=1;jettySize=auto;html=1;" edge="1" parent="1" source="OmQkojMJBYcdFpXbdISO-78" target="OmQkojMJBYcdFpXbdISO-46">
          <mxGeometry relative="1" as="geometry" />
        </mxCell>
        <mxCell id="OmQkojMJBYcdFpXbdISO-78" value="Show" style="ellipse;shape=umlControl;whiteSpace=wrap;html=1;" vertex="1" parent="1">
          <mxGeometry x="845" y="90" width="70" height="80" as="geometry" />
        </mxCell>
        <mxCell id="OmQkojMJBYcdFpXbdISO-91" style="edgeStyle=orthogonalEdgeStyle;rounded=0;orthogonalLoop=1;jettySize=auto;html=1;" edge="1" parent="1" source="OmQkojMJBYcdFpXbdISO-80" target="OmQkojMJBYcdFpXbdISO-87">
          <mxGeometry relative="1" as="geometry" />
        </mxCell>
        <mxCell id="OmQkojMJBYcdFpXbdISO-80" value="My Meetups" style="shape=umlBoundary;whiteSpace=wrap;html=1;" vertex="1" parent="1">
          <mxGeometry x="790" y="860" width="100" height="80" as="geometry" />
        </mxCell>
        <mxCell id="OmQkojMJBYcdFpXbdISO-86" value="" style="edgeStyle=orthogonalEdgeStyle;rounded=0;orthogonalLoop=1;jettySize=auto;html=1;" edge="1" parent="1" source="OmQkojMJBYcdFpXbdISO-84" target="OmQkojMJBYcdFpXbdISO-80">
          <mxGeometry relative="1" as="geometry" />
        </mxCell>
        <mxCell id="OmQkojMJBYcdFpXbdISO-84" value="show" style="ellipse;shape=umlControl;whiteSpace=wrap;html=1;" vertex="1" parent="1">
          <mxGeometry x="625" y="826" width="70" height="70" as="geometry" />
        </mxCell>
        <mxCell id="OmQkojMJBYcdFpXbdISO-92" value="" style="edgeStyle=orthogonalEdgeStyle;rounded=0;orthogonalLoop=1;jettySize=auto;html=1;" edge="1" parent="1" source="OmQkojMJBYcdFpXbdISO-87" target="OmQkojMJBYcdFpXbdISO-41">
          <mxGeometry relative="1" as="geometry" />
        </mxCell>
        <mxCell id="OmQkojMJBYcdFpXbdISO-87" value="Show" style="ellipse;shape=umlControl;whiteSpace=wrap;html=1;" vertex="1" parent="1">
          <mxGeometry x="930" y="860" width="70" height="80" as="geometry" />
        </mxCell>
        <mxCell id="OmQkojMJBYcdFpXbdISO-90" value="Boundary Object" style="shape=umlBoundary;whiteSpace=wrap;html=1;" vertex="1" parent="1">
          <mxGeometry x="1315" y="300" width="100" height="80" as="geometry" />
        </mxCell>
        <mxCell id="OmQkojMJBYcdFpXbdISO-93" value="**3 case 12-13" style="html=1;whiteSpace=wrap;" vertex="1" parent="1">
          <mxGeometry x="1070" y="960" width="110" height="50" as="geometry" />
        </mxCell>
        <mxCell id="OmQkojMJBYcdFpXbdISO-97" value="" style="edgeStyle=orthogonalEdgeStyle;rounded=0;orthogonalLoop=1;jettySize=auto;html=1;" edge="1" parent="1" source="OmQkojMJBYcdFpXbdISO-94" target="OmQkojMJBYcdFpXbdISO-96">
          <mxGeometry relative="1" as="geometry" />
        </mxCell>
        <mxCell id="OmQkojMJBYcdFpXbdISO-94" value="reward amount deposit" style="ellipse;shape=umlControl;whiteSpace=wrap;html=1;" vertex="1" parent="1">
          <mxGeometry x="1210" y="860" width="70" height="80" as="geometry" />
        </mxCell>
        <mxCell id="OmQkojMJBYcdFpXbdISO-96" value="Bank Account" style="ellipse;shape=umlEntity;whiteSpace=wrap;html=1;" vertex="1" parent="1">
          <mxGeometry x="1330" y="860" width="80" height="80" as="geometry" />
        </mxCell>
      </root>
    </mxGraphModel>
  </diagram>
</mxfile>
